<?xml version="1.0" encoding="UTF-8"?>
<svg version="1.1" xmlns="http://www.w3.org/2000/svg" width="512" height="512">
<path d="M0 0 C2.40647557 1.28194913 4.82458113 2.54029133 7.24414062 3.79736328 C10.582141 5.53710358 13.91903589 7.27875416 17.24804688 9.03564453 C17.92649658 9.39319824 18.60494629 9.75075195 19.30395508 10.11914062 C20.96334949 11.04188695 22.55495416 12.08399939 24.13476562 13.13720703 C24.13476562 13.79720703 24.13476562 14.45720703 24.13476562 15.13720703 C23.15378906 15.31896484 22.1728125 15.50072266 21.16210938 15.68798828 C12.94515598 17.21622256 4.74117954 18.79398969 -3.45117188 20.44970703 C-5.55899284 20.87416526 -7.66813504 21.29219054 -9.77929688 21.69970703 C-10.63265625 21.86470703 -11.48601562 22.02970703 -12.36523438 22.19970703 C-13.43257813 22.40273437 -13.43257813 22.40273437 -14.52148438 22.60986328 C-17.67840609 23.32017067 -20.75940823 24.22857084 -23.86523438 25.13720703 C-24.61562988 25.35481689 -25.36602539 25.57242676 -26.13916016 25.79663086 C-39.20393738 29.55543733 -39.20393738 29.55543733 -51.91601562 34.34033203 C-54.82186577 35.52829482 -57.84866566 36.27533025 -60.86523438 37.13720703 C-63.2696581 38.04849218 -65.64827957 39.01414084 -68.02929688 39.98486328 C-71.297675 41.31292326 -74.57803631 42.60643339 -77.86523438 43.88720703 C-78.95835937 44.31517578 -80.05148437 44.74314453 -81.17773438 45.18408203 C-83.86523438 46.13720703 -83.86523438 46.13720703 -85.86523438 46.13720703 C-86.19523437 46.79720703 -86.52523438 47.45720703 -86.86523438 48.13720703 C-88.68554687 49.06689453 -88.68554687 49.06689453 -90.99023438 50.01220703 C-94.04321497 51.30534849 -96.90052835 52.67610212 -99.74023438 54.38720703 C-102.86523438 56.13720703 -102.86523438 56.13720703 -105.86523438 56.13720703 C-105.86523438 56.79720703 -105.86523438 57.45720703 -105.86523438 58.13720703 C-106.66960937 58.26095703 -107.47398437 58.38470703 -108.30273438 58.51220703 C-109.14835937 58.71845703 -109.99398438 58.92470703 -110.86523438 59.13720703 C-111.19523437 59.79720703 -111.52523438 60.45720703 -111.86523438 61.13720703 C-112.85523438 61.13720703 -113.84523438 61.13720703 -114.86523438 61.13720703 C-114.86523438 61.79720703 -114.86523438 62.45720703 -114.86523438 63.13720703 C-116.51523437 63.46720703 -118.16523438 63.79720703 -119.86523438 64.13720703 C-119.86523438 64.79720703 -119.86523438 65.45720703 -119.86523438 66.13720703 C-120.85523438 66.13720703 -121.84523438 66.13720703 -122.86523438 66.13720703 C-122.86523438 66.79720703 -122.86523438 67.45720703 -122.86523438 68.13720703 C-124.66601562 69.36376953 -124.66601562 69.36376953 -127.17773438 70.76220703 C-134.17718267 74.82029173 -141.22515594 79.28197574 -146.86523438 85.13720703 C-148.18723671 86.35792693 -149.52118762 87.56580177 -150.86523438 88.76220703 C-151.54585938 89.37322266 -152.22648437 89.98423828 -152.92773438 90.61376953 C-154.86523438 92.13720703 -154.86523438 92.13720703 -157.86523438 93.13720703 C-157.86523438 93.79720703 -157.86523438 94.45720703 -157.86523438 95.13720703 C-158.52523438 95.13720703 -159.18523437 95.13720703 -159.86523438 95.13720703 C-160.11273438 95.75595703 -160.36023438 96.37470703 -160.61523438 97.01220703 C-162.10263806 99.5407933 -163.30201446 99.85559707 -165.86523438 101.13720703 C-166.28289062 101.98605469 -166.28289062 101.98605469 -166.70898438 102.85205078 C-168.21658081 105.83159102 -170.22216413 108.14263457 -172.36523438 110.69970703 C-174.67763077 113.46632415 -176.86441136 116.13597252 -178.86523438 119.13720703 C-179.52523438 119.13720703 -180.18523437 119.13720703 -180.86523438 119.13720703 C-180.94773437 119.68376953 -181.03023438 120.23033203 -181.11523438 120.79345703 C-182.44012363 124.93373594 -185.42840499 128.06932883 -188.05273438 131.48095703 C-189.72255184 133.92810332 -190.20449209 135.35265026 -190.86523438 138.13720703 C-191.85953651 139.14287262 -192.8604383 140.14202622 -193.86523438 141.13720703 C-194.96751059 143.06207743 -196.00420301 145.0252795 -196.99023438 147.01220703 C-197.5084375 148.04087891 -198.02664063 149.06955078 -198.56054688 150.12939453 C-199.7481074 152.86718377 -200.34806332 155.21958164 -200.86523438 158.13720703 C-201.86523438 160.47054036 -202.86523438 162.8038737 -203.86523438 165.13720703 C-204.95430701 168.44820676 -205.04958473 169.7086369 -203.65039062 172.96142578 C-202.79767578 174.37875 -202.79767578 174.37875 -201.92773438 175.82470703 C-198.86523438 180.98003163 -198.86523438 180.98003163 -198.86523438 183.13720703 C-198.20523437 183.46720703 -197.54523438 183.79720703 -196.86523438 184.13720703 C-196.53190104 185.8038737 -196.19856771 187.47054036 -195.86523438 189.13720703 C-195.20523437 189.46720703 -194.54523438 189.79720703 -193.86523438 190.13720703 C-192.90039062 192.21142578 -192.90039062 192.21142578 -191.92773438 194.82470703 C-190.77129895 197.8565602 -189.59110659 200.67567233 -188.11523438 203.57470703 C-186.86523438 206.13720703 -186.86523438 206.13720703 -186.86523438 209.13720703 C-186.20523437 209.46720703 -185.54523438 209.79720703 -184.86523438 210.13720703 C-183.79313573 212.79414714 -182.81083606 215.43615667 -181.86523438 218.13720703 C-181.34756044 219.51339963 -180.82682802 220.88844642 -180.30273438 222.26220703 C-179.06355869 225.52466957 -177.96157899 228.8240777 -176.86523438 232.13720703 C-176.46304687 233.33216797 -176.06085938 234.52712891 -175.64648438 235.75830078 C-175.21938417 237.03043053 -174.79230104 238.30256602 -174.36523438 239.57470703 C-174.04619141 240.51926758 -174.04619141 240.51926758 -173.72070312 241.48291016 C-169.33459734 254.57395594 -169.33459734 254.57395594 -168.65429688 261.18798828 C-168.44929748 263.17789617 -168.16198047 265.1588997 -167.86523438 267.13720703 C-167.20523437 267.46720703 -166.54523438 267.79720703 -165.86523438 268.13720703 C-165.33789062 270.36767578 -165.33789062 270.36767578 -164.92773438 273.32470703 C-164.2715651 277.80098827 -163.4399253 282.18085478 -162.43164062 286.59033203 C-160.76975096 294.24918976 -159.70186696 301.92586918 -158.74023438 309.69970703 C-158.57136719 311.00617188 -158.4025 312.31263672 -158.22851562 313.65869141 C-157.19716995 321.80794638 -156.42569224 329.94300013 -155.86523438 338.13720703 C-155.76082031 339.44689453 -155.65640625 340.75658203 -155.54882812 342.10595703 C-154.8947129 351.49199143 -154.75953287 360.85389785 -154.74023438 370.26220703 C-154.73564209 371.5196875 -154.7310498 372.77716797 -154.72631836 374.07275391 C-154.73605911 379.87356656 -154.89506567 385.40564298 -155.86523438 391.13720703 C-156.21665582 394.44606407 -156.5040811 397.76071687 -156.80273438 401.07470703 C-158.01693188 414.05858602 -159.46139139 426.84605175 -162.13476562 439.62939453 C-163.13838623 444.44892023 -164.00861486 449.28974834 -164.86523438 454.13720703 C-165.52523438 454.13720703 -166.18523437 454.13720703 -166.86523438 454.13720703 C-166.99800781 453.13560547 -167.13078125 452.13400391 -167.26757812 451.10205078 C-167.44594565 449.75960049 -167.62433208 448.4171527 -167.80273438 447.07470703 C-167.88974609 446.41792969 -167.97675781 445.76115234 -168.06640625 445.08447266 C-168.47829678 441.98766608 -168.90033481 438.89350156 -169.34570312 435.80126953 C-169.75515166 432.91357983 -170.14148917 430.02586919 -170.51367188 427.13330078 C-171.87174631 416.67893741 -173.38335541 406.39364662 -175.86523438 396.13720703 C-176.12046875 395.06019531 -176.12046875 395.06019531 -176.38085938 393.96142578 C-176.8963123 391.90693119 -176.8963123 391.90693119 -177.99023438 389.07470703 C-178.86523438 386.13720703 -178.86523438 386.13720703 -177.86523438 383.13720703 C-178.52523438 382.80720703 -179.18523437 382.47720703 -179.86523438 382.13720703 C-180.51378393 378.78636766 -180.89035072 375.43089418 -181.30273438 372.04345703 C-181.48835938 371.08439453 -181.67398437 370.12533203 -181.86523438 369.13720703 C-182.52523438 368.80720703 -183.18523437 368.47720703 -183.86523438 368.13720703 C-183.86523438 366.48720703 -183.86523438 364.83720703 -183.86523438 363.13720703 C-184.52523438 362.80720703 -185.18523437 362.47720703 -185.86523438 362.13720703 C-186.65456959 360.01982971 -187.34940559 357.86665772 -187.99023438 355.69970703 C-188.3434375 354.52537109 -188.69664062 353.35103516 -189.06054688 352.14111328 C-189.86523438 349.13720703 -189.86523438 349.13720703 -189.86523438 347.13720703 C-190.52523438 346.80720703 -191.18523437 346.47720703 -191.86523438 346.13720703 C-192.50340505 343.83270183 -192.88560761 341.5222438 -193.30273438 339.16845703 C-193.48835938 338.49814453 -193.67398437 337.82783203 -193.86523438 337.13720703 C-194.52523438 336.80720703 -195.18523437 336.47720703 -195.86523438 336.13720703 C-196.27252665 333.81564106 -196.60962114 331.48032833 -196.86523438 329.13720703 C-197.52523438 329.13720703 -198.18523437 329.13720703 -198.86523438 329.13720703 C-198.86523438 327.81720703 -198.86523438 326.49720703 -198.86523438 325.13720703 C-199.52523438 324.80720703 -200.18523437 324.47720703 -200.86523438 324.13720703 C-201.61554309 322.47730618 -202.3575066 320.81280447 -203.04394531 319.12548828 C-206.81783102 309.9891847 -211.66497652 301.22855646 -216.74023438 292.76220703 C-217.12131348 292.12605469 -217.50239258 291.48990234 -217.89501953 290.83447266 C-219.4039995 288.35993523 -220.808147 286.19429441 -222.86523438 284.13720703 C-224.40560317 281.63571676 -225.86413791 279.09307531 -227.33007812 276.54736328 C-228.73473171 274.15014553 -228.73473171 274.15014553 -230.49414062 272.50830078 C-231.86523438 271.13720703 -231.86523438 271.13720703 -232.86523438 268.13720703 C-233.52523437 267.80720703 -234.18523437 267.47720703 -234.86523438 267.13720703 C-235.19523438 266.14720703 -235.52523437 265.15720703 -235.86523438 264.13720703 C-236.85432342 263.12641384 -237.85740914 262.12932007 -238.86523438 261.13720703 C-241.03434626 258.34583777 -243.16620818 255.53197082 -245.28125 252.69970703 C-247.63531992 249.42756216 -247.63531992 249.42756216 -250.86523438 247.13720703 C-250.86523438 246.47720703 -250.86523438 245.81720703 -250.86523438 245.13720703 C-251.52523437 245.13720703 -252.18523437 245.13720703 -252.86523438 245.13720703 C-253.19523438 244.14720703 -253.52523437 243.15720703 -253.86523438 242.13720703 C-255.50038171 240.43960615 -257.17232593 238.77721208 -258.86523438 237.13720703 C-261.38374522 234.32749337 -263.87779294 231.49788241 -266.36523438 228.66064453 C-271.8163096 223.15846548 -278.90679071 220.26915515 -286.61523438 220.01220703 C-287.68773437 220.05345703 -288.76023437 220.09470703 -289.86523438 220.13720703 C-292.74023438 219.76220703 -292.74023438 219.76220703 -294.86523438 219.13720703 C-295.19523438 218.47720703 -295.52523437 217.81720703 -295.86523438 217.13720703 C-297.81429687 217.16814453 -297.81429687 217.16814453 -299.80273438 217.19970703 C-301.15689071 217.22120158 -302.5127952 217.20868902 -303.86523438 217.13720703 C-304.19523438 216.80720703 -304.52523437 216.47720703 -304.86523438 216.13720703 C-306.21367976 215.83919175 -307.56943725 215.57399999 -308.92773438 215.32470703 C-312.96571957 214.46990448 -316.18698918 213.10311725 -319.80273438 211.15673828 C-323.34245761 209.40698873 -327.09636532 208.28880591 -330.86523438 207.13720703 C-330.86523438 206.47720703 -330.86523438 205.81720703 -330.86523438 205.13720703 C-331.71085938 204.88970703 -332.55648437 204.64220703 -333.42773438 204.38720703 C-342.97634549 200.91498481 -342.97634549 200.91498481 -344.86523438 197.13720703 C-346.71495134 196.086996 -346.71495134 196.086996 -348.86523438 195.13720703 C-350.19856771 194.47054036 -351.53190104 193.8038737 -352.86523438 193.13720703 C-352.86523438 192.47720703 -352.86523438 191.81720703 -352.86523438 191.13720703 C-353.4453125 190.87552734 -354.02539062 190.61384766 -354.62304688 190.34423828 C-356.99622192 189.06669283 -358.74531867 187.63134756 -360.74023438 185.82470703 C-363.22481075 183.58672719 -365.72856754 181.44280748 -368.36523438 179.38720703 C-369.60273438 178.27345703 -369.60273438 178.27345703 -370.86523438 177.13720703 C-370.86523438 176.14720703 -370.86523438 175.15720703 -370.86523438 174.13720703 C-371.85523438 173.80720703 -372.84523438 173.47720703 -373.86523438 173.13720703 C-378.86523438 167.67209075 -378.86523438 167.67209075 -378.86523438 165.13720703 C-379.52523437 165.13720703 -380.18523437 165.13720703 -380.86523438 165.13720703 C-381.93011481 163.51122812 -382.91549044 161.83301487 -383.86523438 160.13720703 C-385.17742708 158.03284871 -386.48994703 155.92869443 -387.80273438 153.82470703 C-397.71032712 137.80574138 -405.63270482 118.9434436 -404.70117188 99.75830078 C-404.12620291 92.83673515 -404.12620291 92.83673515 -407.55273438 87.19970703 C-408.64585937 86.51908203 -409.73898437 85.83845703 -410.86523438 85.13720703 C-412.23632812 83.59033203 -412.23632812 83.59033203 -413.49023438 81.94970703 C-415.61873784 79.42911083 -416.83682744 78.25883923 -419.86523438 77.13720703 C-419.86523438 76.47720703 -419.86523438 75.81720703 -419.86523438 75.13720703 C-420.52523437 75.13720703 -421.18523437 75.13720703 -421.86523438 75.13720703 C-425.86523438 70.6666188 -425.86523438 70.6666188 -425.86523438 68.13720703 C-426.42210937 68.09595703 -426.97898437 68.05470703 -427.55273438 68.01220703 C-430.46016544 66.91209798 -431.64194343 65.1008182 -433.50195312 62.68798828 C-435.00045073 60.84856574 -435.00045073 60.84856574 -438.05273438 59.01220703 C-440.95893302 57.07474127 -441.45627587 56.15640382 -442.86523438 53.13720703 C-444.89882918 51.86916137 -444.89882918 51.86916137 -446.86523438 51.13720703 C-446.86523438 50.47720703 -446.86523438 49.81720703 -446.86523438 49.13720703 C-447.52523438 49.13720703 -448.18523437 49.13720703 -448.86523438 49.13720703 C-449.11273438 48.35345703 -449.36023438 47.56970703 -449.61523438 46.76220703 C-451.09555419 43.65353542 -451.86797323 43.55667497 -454.86523438 42.13720703 C-463.07395712 35.95859852 -463.07395712 35.95859852 -464.86523438 32.13720703 C-464.24023438 28.94970703 -464.24023438 28.94970703 -462.86523438 26.13720703 C-459.37626502 24.97421725 -456.63622221 25.0030331 -452.95385742 24.99194336 C-451.90428612 24.98690544 -451.90428612 24.98690544 -450.83351135 24.98176575 C-448.51464059 24.97225217 -446.19584221 24.97031146 -443.87695312 24.96923828 C-442.25568106 24.9660225 -440.63440928 24.96265818 -439.01313782 24.95915222 C-435.60600108 24.95315749 -432.19888969 24.95131233 -428.79174805 24.9519043 C-424.46271095 24.95200514 -420.13384076 24.93843553 -415.80484295 24.92113209 C-412.44927757 24.90990568 -409.09375093 24.90798843 -405.73816872 24.90851402 C-404.14485927 24.90734668 -402.55154839 24.9029964 -400.95825768 24.89518166 C-374.89178227 24.77945029 -351.56860785 30.3881519 -331.86523438 48.13720703 C-330.72248047 49.08466797 -330.72248047 49.08466797 -329.55664062 50.05126953 C-325.54438615 53.39358794 -322.29973534 56.47990084 -319.86523438 61.13720703 C-321.42348418 65.81195644 -324.89087902 68.36011737 -328.86523438 71.13720703 C-332.80972356 72.34061051 -334.68234461 72.68537546 -338.42773438 70.94970703 C-339.63429688 70.05251953 -339.63429688 70.05251953 -340.86523438 69.13720703 C-341.89648438 68.51845703 -342.92773438 67.89970703 -343.99023438 67.26220703 C-346.86523438 65.13720703 -346.86523438 65.13720703 -348.30273438 62.69970703 C-352.69918479 55.48952835 -362.84147651 51.50119275 -370.55273438 48.88720703 C-376.64094561 47.50874411 -382.53766367 46.99265841 -388.76757812 47.03955078 C-389.8514254 47.0416732 -389.8514254 47.0416732 -390.95716858 47.0438385 C-393.23906802 47.04938478 -395.52086516 47.06192683 -397.80273438 47.07470703 C-399.36067565 47.07972899 -400.91861849 47.08429067 -402.4765625 47.08837891 C-406.27282519 47.09933653 -410.06901251 47.11656331 -413.86523438 47.13720703 C-413.15760543 51.51372356 -412.32271343 53.06211324 -408.80273438 55.82470703 C-407.4585781 56.89011033 -406.13737582 57.98677388 -404.86523438 59.13720703 C-404.86523438 59.79720703 -404.86523438 60.45720703 -404.86523438 61.13720703 C-404.20523438 61.13720703 -403.54523438 61.13720703 -402.86523438 61.13720703 C-401.52539063 62.50048828 -401.52539063 62.50048828 -399.92773438 64.44970703 C-396.78196525 68.15295423 -393.4844752 71.63958795 -390.05273438 75.07470703 C-389.33259155 75.80137573 -389.33259155 75.80137573 -388.59790039 76.54272461 C-385.98052314 79.17053357 -385.98052314 79.17053357 -382.86523438 81.13720703 C-382.86523438 81.79720703 -382.86523438 82.45720703 -382.86523438 83.13720703 C-382.20523438 83.36408203 -381.54523438 83.59095703 -380.86523438 83.82470703 C-378.35105531 84.92466037 -376.43099542 86.05729797 -374.17773438 87.57470703 C-363.74869674 94.10251207 -351.31913761 94.83373863 -339.41992188 92.44580078 C-328.19264017 89.01444486 -317.16791663 81.3817166 -310.20117188 71.86376953 C-309.53988281 71.00912109 -309.53988281 71.00912109 -308.86523438 70.13720703 C-308.20523438 70.13720703 -307.54523438 70.13720703 -306.86523438 70.13720703 C-306.86523438 69.47720703 -306.86523438 68.81720703 -306.86523438 68.13720703 C-305.2152061 66.78333767 -303.54779567 65.45042561 -301.86523438 64.13720703 C-301.53523437 63.47720703 -301.20523438 62.81720703 -300.86523438 62.13720703 C-300.20523438 62.13720703 -299.54523438 62.13720703 -298.86523438 62.13720703 C-298.86523438 61.47720703 -298.86523438 60.81720703 -298.86523438 60.13720703 C-298.20523438 60.13720703 -297.54523438 60.13720703 -296.86523438 60.13720703 C-296.86523438 59.47720703 -296.86523438 58.81720703 -296.86523438 58.13720703 C-296.20523438 58.13720703 -295.54523438 58.13720703 -294.86523438 58.13720703 C-294.86523438 57.47720703 -294.86523438 56.81720703 -294.86523438 56.13720703 C-293.22070312 54.44580078 -293.22070312 54.44580078 -291.05273438 52.57470703 C-290.34503906 51.95466797 -289.63734375 51.33462891 -288.90820312 50.69580078 C-286.86523438 49.13720703 -286.86523438 49.13720703 -283.86523438 48.13720703 C-283.86523438 47.47720703 -283.86523438 46.81720703 -283.86523438 46.13720703 C-282.40429688 44.62939453 -282.40429688 44.62939453 -280.49023438 43.01220703 C-279.86375 42.47337891 -279.23726562 41.93455078 -278.59179688 41.37939453 C-276.86523438 40.13720703 -276.86523438 40.13720703 -274.86523438 40.13720703 C-274.86523438 39.47720703 -274.86523438 38.81720703 -274.86523438 38.13720703 C-273.00195312 36.73486328 -273.00195312 36.73486328 -270.55273438 35.19970703 C-267.64126581 33.36656016 -265.2593767 31.59289543 -262.86523438 29.13720703 C-255.46517167 22.95803009 -247.26258387 17.83972275 -238.86523438 13.13720703 C-237.50398438 12.20714844 -237.50398438 12.20714844 -236.11523438 11.25830078 C-232.76147954 9.06949203 -229.32637714 7.2157449 -225.74023438 5.44970703 C-224.70805786 4.94032593 -224.70805786 4.94032593 -223.6550293 4.4206543 C-221.39664906 3.31573567 -219.13240652 2.22396642 -216.86523438 1.13720703 C-216.08776855 0.76370117 -215.31030273 0.39019531 -214.50927734 0.00537109 C-187.43119824 -12.88580157 -158.72260278 -20.87120174 -128.86523438 -23.86279297 C-128.11822266 -23.93868652 -127.37121094 -24.01458008 -126.6015625 -24.09277344 C-84.08098803 -28.1043299 -37.81193229 -20.18693418 0 0 Z M-162.1081543 -1.51855469 C-164.14992827 -0.75654206 -166.15733713 -0.29749639 -168.30273438 0.07470703 C-172.27397609 0.90007584 -175.66220003 2.26562361 -179.32226562 3.98876953 C-183.51853849 5.8838605 -187.83671861 7.45976774 -192.14257812 9.08642578 C-194.77786939 10.05386774 -194.77786939 10.05386774 -196.86523438 11.13720703 C-196.86523438 11.79720703 -196.86523438 12.45720703 -196.86523438 13.13720703 C-197.81398438 13.17845703 -198.76273438 13.21970703 -199.74023438 13.26220703 C-204.19453008 13.89725722 -207.40620256 16.05650682 -211.15429688 18.43798828 C-215.60106772 21.22522937 -220.24163483 23.65839511 -224.86523438 26.13720703 C-224.86523438 26.79720703 -224.86523438 27.45720703 -224.86523438 28.13720703 C-225.53941406 28.37439453 -226.21359375 28.61158203 -226.90820312 28.85595703 C-230.58133436 30.44748549 -233.81978189 32.47234786 -237.17773438 34.63720703 C-237.82291016 35.04068359 -238.46808594 35.44416016 -239.1328125 35.85986328 C-240.748047 36.89566445 -242.3119632 38.01061251 -243.86523438 39.13720703 C-243.86523438 39.79720703 -243.86523438 40.45720703 -243.86523438 41.13720703 C-244.54585937 41.34345703 -245.22648438 41.54970703 -245.92773438 41.76220703 C-249.78162813 43.5661573 -252.94311202 46.03824153 -255.86523438 49.13720703 C-255.86523438 49.79720703 -255.86523438 50.45720703 -255.86523438 51.13720703 C-257.18523437 51.46720703 -258.50523437 51.79720703 -259.86523438 52.13720703 C-259.86523438 52.79720703 -259.86523438 53.45720703 -259.86523438 54.13720703 C-260.44789063 54.40533203 -261.03054688 54.67345703 -261.63085938 54.94970703 C-263.89310038 56.15201694 -265.67099755 57.47546616 -267.61523438 59.13720703 C-268.535625 59.91064453 -268.535625 59.91064453 -269.47460938 60.69970703 C-271.09699814 62.04343955 -271.09699814 62.04343955 -270.86523438 64.13720703 C-271.44273437 64.38470703 -272.02023437 64.63220703 -272.61523438 64.88720703 C-275.19463417 66.32020692 -276.92645029 67.9214538 -278.86523438 70.13720703 C-278.86523438 70.79720703 -278.86523438 71.45720703 -278.86523438 72.13720703 C-279.42210937 72.36408203 -279.97898437 72.59095703 -280.55273438 72.82470703 C-283.52378622 74.5109797 -285.51045563 76.66756103 -287.86523438 79.13720703 C-292.86523438 84.13720703 -292.86523438 84.13720703 -294.95898438 86.16064453 C-295.69117188 86.87478516 -296.42335938 87.58892578 -297.17773438 88.32470703 C-297.87511719 88.99888672 -298.5725 89.67306641 -299.29101562 90.36767578 C-301.08679134 91.99151606 -301.08679134 91.99151606 -300.86523438 94.13720703 C-302.00992188 94.53939453 -302.00992188 94.53939453 -303.17773438 94.94970703 C-305.75512055 96.08855209 -307.13478302 96.95137374 -308.86523438 99.13720703 C-308.86523438 99.79720703 -308.86523438 100.45720703 -308.86523438 101.13720703 C-309.39761719 101.22357422 -309.93 101.30994141 -310.47851562 101.39892578 C-313.70512927 102.39701085 -316.19864004 104.14624062 -319.05273438 105.94970703 C-326.92605283 110.67791125 -334.89438797 112.54501827 -343.86523438 114.13720703 C-345.21488281 114.39824219 -345.21488281 114.39824219 -346.59179688 114.66455078 C-351.50468894 115.43707268 -355.60408371 114.74152855 -360.42382812 113.61767578 C-363.96146272 112.92146929 -367.27017032 113.00405651 -370.86523438 113.13720703 C-370.86523438 112.47720703 -370.86523438 111.81720703 -370.86523438 111.13720703 C-371.72246094 110.83427734 -372.5796875 110.53134766 -373.46289062 110.21923828 C-380.02912674 107.81334568 -385.31916506 105.35704238 -390.86523438 101.13720703 C-391.85523438 101.13720703 -392.84523438 101.13720703 -393.86523438 101.13720703 C-393.86523438 100.47720703 -393.86523438 99.81720703 -393.86523438 99.13720703 C-394.52523437 99.13720703 -395.18523437 99.13720703 -395.86523438 99.13720703 C-396.19523437 98.47720703 -396.52523437 97.81720703 -396.86523438 97.13720703 C-396.89247587 98.55376496 -396.91173904 99.97047748 -396.92773438 101.38720703 C-396.93933594 102.17611328 -396.9509375 102.96501953 -396.96289062 103.77783203 C-396.86725685 106.08834395 -396.47299157 107.91281568 -395.86523438 110.13720703 C-395.66027344 111.20068359 -395.4553125 112.26416016 -395.24414062 113.35986328 C-392.88848087 124.4393539 -388.40994604 133.59966331 -382.83325195 143.41992188 C-382.14478447 144.64127881 -381.49224318 145.88318941 -380.86523438 147.13720703 C-380.20523438 147.13720703 -379.54523438 147.13720703 -378.86523438 147.13720703 C-378.59710938 148.04470703 -378.32898438 148.95220703 -378.05273438 149.88720703 C-376.96391806 152.86712537 -376.00132336 154.82311063 -373.86523438 157.13720703 C-373.20523438 157.13720703 -372.54523438 157.13720703 -371.86523438 157.13720703 C-371.74148438 157.73533203 -371.61773437 158.33345703 -371.49023438 158.94970703 C-370.91047452 161.39952052 -370.91047452 161.39952052 -368.86523438 164.13720703 C-368.20523438 164.13720703 -367.54523438 164.13720703 -366.86523438 164.13720703 C-366.53523438 165.12720703 -366.20523438 166.11720703 -365.86523438 167.13720703 C-365.20523438 167.13720703 -364.54523438 167.13720703 -363.86523438 167.13720703 C-363.65253906 167.68119141 -363.43984375 168.22517578 -363.22070312 168.78564453 C-352.76345593 186.92761229 -325.90133114 198.91867606 -306.74829102 204.55419922 C-299.43428014 206.49259143 -291.93603307 207.28886572 -284.41381836 207.97436523 C-278.3816268 208.57713043 -273.38553536 209.83170452 -267.84155273 212.31274414 C-265.91449639 213.26554437 -265.91449639 213.26554437 -263.86523438 213.13720703 C-263.86523438 213.79720703 -263.86523438 214.45720703 -263.86523438 215.13720703 C-262.21523438 215.79720703 -260.56523437 216.45720703 -258.86523438 217.13720703 C-258.86523438 217.79720703 -258.86523438 218.45720703 -258.86523438 219.13720703 C-258.20523438 219.13720703 -257.54523438 219.13720703 -256.86523438 219.13720703 C-256.63835937 219.68892578 -256.41148437 220.24064453 -256.17773438 220.80908203 C-254.47797511 223.8241312 -252.31718622 225.94951072 -249.86523438 228.38720703 C-248.97835937 229.27923828 -248.09148437 230.17126953 -247.17773438 231.09033203 C-245.13034334 233.35813776 -245.13034334 233.35813776 -242.86523438 233.13720703 C-242.86523438 233.79720703 -242.86523438 234.45720703 -242.86523438 235.13720703 C-242.20523438 235.13720703 -241.54523438 235.13720703 -240.86523438 235.13720703 C-240.63835937 235.67345703 -240.41148437 236.20970703 -240.17773438 236.76220703 C-238.40953348 239.96180865 -236.32853235 242.42757926 -233.86523438 245.13720703 C-233.20523438 245.13720703 -232.54523438 245.13720703 -231.86523438 245.13720703 C-231.59710938 245.69408203 -231.32898438 246.25095703 -231.05273438 246.82470703 C-229.75623942 249.34946037 -228.44047115 251.77435188 -226.86523438 254.13720703 C-226.20523438 254.13720703 -225.54523438 254.13720703 -224.86523438 254.13720703 C-224.53523437 255.12720703 -224.20523438 256.11720703 -223.86523438 257.13720703 C-223.20523438 257.13720703 -222.54523438 257.13720703 -221.86523438 257.13720703 C-221.72988281 257.97058594 -221.72988281 257.97058594 -221.59179688 258.82080078 C-220.66031412 261.79052805 -219.1271264 263.72634856 -217.24023438 266.19970703 C-213.15484543 271.6809981 -209.47093294 277.33291178 -205.86523438 283.13720703 C-205.37796875 283.90548828 -204.89070312 284.67376953 -204.38867188 285.46533203 C-202.38226101 288.63334918 -200.50524879 291.76070677 -198.86523438 295.13720703 C-198.20523438 295.13720703 -197.54523438 295.13720703 -196.86523438 295.13720703 C-196.53523437 296.29220703 -196.20523438 297.44720703 -195.86523438 298.63720703 C-193.58853233 305.52204157 -190.1154812 311.87044735 -186.80786133 318.30224609 C-184.29971317 323.18472253 -181.98956483 328.07927738 -179.86523438 333.13720703 C-179.20523438 332.47720703 -178.54523438 331.81720703 -177.86523438 331.13720703 C-177.91352515 328.81151847 -177.91352515 328.81151847 -178.43945312 326.14892578 C-178.61105957 325.13813965 -178.78266602 324.12735352 -178.95947266 323.0859375 C-179.15524902 322.00973145 -179.35102539 320.93352539 -179.55273438 319.82470703 C-179.74335449 318.73561035 -179.93397461 317.64651367 -180.13037109 316.52441406 C-182.37576774 303.66108299 -182.37576774 303.66108299 -185.89257812 291.10595703 C-186.75574847 288.47138088 -187.33358077 285.98776607 -187.80273438 283.26220703 C-188.54246947 279.38437697 -189.60871889 275.92253944 -191.08007812 272.27001953 C-192.32084309 268.89958336 -193.15230584 265.4276886 -194.02148438 261.94580078 C-195.04298758 258.54551929 -196.45128756 255.3931441 -197.86523438 252.13720703 C-198.53389556 250.30874415 -199.20226519 248.48012485 -199.85522461 246.64599609 C-204.72202723 233.06596441 -211.32356883 220.42205846 -218.86523438 208.13720703 C-219.2385791 207.52474121 -219.61192383 206.91227539 -219.99658203 206.28125 C-221.19153654 204.3301551 -222.40072595 202.3886807 -223.61523438 200.44970703 C-223.99220459 199.83659668 -224.3691748 199.22348633 -224.75756836 198.59179688 C-227.03147042 194.9444313 -227.03147042 194.9444313 -230.86523438 193.13720703 C-231.90039062 191.34814453 -231.90039062 191.34814453 -232.86523438 189.13720703 C-233.67076931 187.6750149 -234.48356599 186.21680509 -235.30273438 184.76220703 C-235.73972656 183.97072266 -236.17671875 183.17923828 -236.62695312 182.36376953 C-237.60234604 180.60990845 -238.60404418 178.87067593 -239.61523438 177.13720703 C-242.30170154 170.68968583 -242.70628562 163.64114962 -240.03173828 157.09814453 C-238.98977752 154.84265315 -237.9077328 152.61247156 -236.80273438 150.38720703 C-236.05847202 148.87323745 -235.31742046 147.35768388 -234.58007812 145.84033203 C-234.25128662 145.17678711 -233.92249512 144.51324219 -233.58374023 143.82958984 C-232.73497039 142.13681222 -232.73497039 142.13681222 -232.86523438 140.13720703 C-232.20523438 140.13720703 -231.54523438 140.13720703 -230.86523438 140.13720703 C-229.87523437 137.16720703 -229.87523437 137.16720703 -228.86523438 134.13720703 C-228.20523438 134.13720703 -227.54523438 134.13720703 -226.86523438 134.13720703 C-223.97304884 130.28509274 -223.97304884 130.28509274 -222.30273438 125.82470703 C-222.08617187 124.98939453 -222.08617187 124.98939453 -221.86523438 124.13720703 C-220.87523437 123.80720703 -219.88523438 123.47720703 -218.86523438 123.13720703 C-217.42325811 121.57993845 -217.42325811 121.57993845 -216.17773438 119.69970703 C-215.74074219 119.08224609 -215.30375 118.46478516 -214.85351562 117.82861328 C-213.69707077 116.17589598 -213.69707077 116.17589598 -213.86523438 114.13720703 C-213.20523438 114.13720703 -212.54523438 114.13720703 -211.86523438 114.13720703 C-208.22889898 110.65722196 -208.22889898 110.65722196 -206.86523438 106.13720703 C-206.27613281 105.88712891 -205.68703125 105.63705078 -205.08007812 105.37939453 C-202.57213732 103.97282456 -201.24098859 102.48166369 -199.42773438 100.26220703 C-196.79838441 97.13418725 -194.07964088 94.66976973 -190.86523438 92.13720703 C-190.86523438 91.47720703 -190.86523438 90.81720703 -190.86523438 90.13720703 C-190.300625 89.89357422 -189.73601562 89.64994141 -189.15429688 89.39892578 C-186.4383437 87.90190722 -184.492442 86.08086766 -182.24023438 83.94970703 C-177.9767204 80.01610783 -173.55883107 76.70857842 -168.70117188 73.54736328 C-168.0953125 73.08201172 -167.48945313 72.61666016 -166.86523438 72.13720703 C-166.86523438 71.47720703 -166.86523438 70.81720703 -166.86523438 70.13720703 C-166.30835938 70.03408203 -165.75148438 69.93095703 -165.17773438 69.82470703 C-162.38832427 68.99542295 -160.25132797 67.79421647 -157.86523438 66.13720703 C-157.86523438 65.47720703 -157.86523438 64.81720703 -157.86523438 64.13720703 C-157.14335937 64.05470703 -156.42148437 63.97220703 -155.67773438 63.88720703 C-152.76356493 63.3134515 -152.76356493 63.3134515 -150.54492188 61.27001953 C-147.84247639 59.11909354 -145.29291032 57.73453318 -142.17773438 56.26220703 C-138.4109589 54.47821323 -134.86099466 52.53466283 -131.32617188 50.33642578 C-125.19101919 46.61822107 -118.73317523 43.71415873 -112.17773438 40.82470703 C-111.54285095 40.54340942 -110.90796753 40.26211182 -110.25384521 39.97229004 C-76.71184709 25.12917854 -43.08817449 15.02663558 -6.86523438 9.13720703 C-13.88499124 3.74000608 -22.38680945 1.57043219 -30.78710938 -0.93310547 C-32.90143562 -1.57169639 -34.99579327 -2.27916954 -37.06835938 -3.04248047 C-39.91012364 -4.16474291 -39.91012364 -4.16474291 -42.86523438 -2.86279297 C-43.19523437 -3.52279297 -43.52523438 -4.18279297 -43.86523438 -4.86279297 C-48.41254126 -6.2190073 -52.80585691 -7.06421933 -57.52929688 -7.57763672 C-60.51056382 -7.94157064 -63.46383386 -8.44035272 -66.42773438 -8.92529297 C-71.00181466 -9.64695761 -75.25038383 -9.9653452 -79.86523438 -9.86279297 C-80.52523438 -10.19279297 -81.18523437 -10.52279297 -81.86523438 -10.86279297 C-86.75464641 -11.14421025 -91.65598117 -11.10812122 -96.55273438 -11.11279297 C-97.27463959 -11.11380005 -97.9965448 -11.11480713 -98.74032593 -11.11584473 C-119.77707879 -11.09601771 -142.35319878 -9.25921245 -162.1081543 -1.51855469 Z M-177.86523438 336.13720703 C-176.86523438 339.13720703 -176.86523438 339.13720703 -176.86523438 339.13720703 Z " fill="#0C3387" transform="translate(475.865234375,40.86279296875)"/>
</svg>
